<?xml version="1.0" encoding="UTF-8" standalone="no"?>
<svg
   version="1.1"
   width="24"
   height="24"
   fill="#9e9e9e"
   viewBox="0 0 24 24"
   id="svg4"
   xmlns="http://www.w3.org/2000/svg"
   xmlns:svg="http://www.w3.org/2000/svg">
  <defs
     id="defs8" />
  <path
     d="m 20.062783,7 h -10 l 0.425113,-2 h 10 M 14.36233,15 H 8.3623303 l 0.4251131,-2 h 5.9999996 m 4.425114,-2 H 9.2125566 L 9.6376697,9 H 19.63767 m 2.487896,-7 h -12 A 1.7987068,2.2238199 48.033262 0 0 7.7004525,4 L 5.1497738,16 a 1.7987068,2.2238199 48.033262 0 0 1.5748868,2 H 18.724661 a 1.7987068,2.2238199 48.033262 0 0 2.425113,-2 L 23.700452,4 A 1.7987068,2.2238199 48.033262 0 0 22.125566,2 M 5.2753394,6 h -2 L 0.29954751,20 A 1.7987068,2.2238199 48.033262 0 0 1.8744344,22 H 15.874434 l 0.425114,-2 H 2.2995475 Z"
     id="path2" />
</svg>
